<svg xmlns="http://www.w3.org/2000/svg" width="405" height="534" viewBox="0 0 405 534">
  <defs>
    <filter id="a" width="200%" height="200%" x="-50%" y="-50%" filterUnits="objectBoundingBox">
      <feOffset dy="1" in="SourceAlpha" result="shadowOffsetOuter1"/>
      <feGaussianBlur stdDeviation="4" in="shadowOffsetOuter1" result="shadowBlurOuter1"/>
      <feColorMatrix values="0 0 0 0 0 0 0 0 0 0 0 0 0 0 0 0 0 0 0.2 0" in="shadowBlurOuter1" result="shadowMatrixOuter1"/>
      <feMerge>
        <feMergeNode in="shadowMatrixOuter1"/>
        <feMergeNode in="SourceGraphic"/>
      </feMerge>
    </filter>
  </defs>
  <g fill="none" fill-rule="evenodd" transform="translate(8 7)">
    <g opacity=".2" transform="translate(126 416)">
      <path stroke="#E94F7E" stroke-width="6.184" d="M.3258 39.2404C.3258 46.0874 5.8758 51.6374 12.7228 51.6374 19.5698 51.6374 25.1198 46.0874 25.1198 39.2404 25.1198 32.3934 19.5698 26.8434 12.7228 26.8434 5.8758 26.8434.3258 32.3934.3258 39.2404L.3258 39.2404zM25.3975 99.6018C25.3975 103.8868 28.8715 107.3608 33.1565 107.3608 37.4425 107.3608 40.9165 103.8868 40.9165 99.6018 40.9165 95.3168 37.4425 91.8428 33.1565 91.8428 28.8715 91.8428 25.3975 95.3168 25.3975 99.6018L25.3975 99.6018z"/>
      <path fill="#E94F7E" d="M44.9071,7.7854 C44.9071,12.0704 48.3811,15.5444 52.6661,15.5444 C56.9521,15.5444 60.4251,12.0704 60.4251,7.7854 C60.4251,3.5004 56.9521,0.0264 52.6661,0.0264 C48.3811,0.0264 44.9071,3.5004 44.9071,7.7854"/>
      <path fill="#E94F7E" d="M44.9071,7.7854 C44.9071,12.0704 48.3811,15.5444 52.6661,15.5444 C56.9521,15.5444 60.4251,12.0704 60.4251,7.7854 C60.4251,3.5004 56.9521,0.0264 52.6661,0.0264 C48.3811,0.0264 44.9071,3.5004 44.9071,7.7854"/>
      <path fill="#CF4066" d="M52.6663,13.9988 C48.6453,13.9988 45.3783,10.9288 44.9853,7.0118 C44.9593,7.2708 44.9073,7.5208 44.9073,7.7848 C44.9073,12.0708 48.3813,15.5448 52.6663,15.5448 C56.9513,15.5448 60.4253,12.0708 60.4253,7.7848 C60.4253,7.5208 60.3733,7.2708 60.3473,7.0118 C59.9543,10.9288 56.6863,13.9988 52.6663,13.9988"/>
      <path fill="#E94F7E" d="M55.0363,54.288 C55.0363,62.011 61.2973,68.272 69.0203,68.272 C76.7443,68.272 83.0053,62.011 83.0053,54.288 C83.0053,46.565 76.7443,40.304 69.0203,40.304 C61.2973,40.304 55.0363,46.565 55.0363,54.288"/>
      <path fill="#CF4066" d="M69.0207,65.6219 C61.7447,65.6219 55.7717,60.0639 55.1037,52.9629 C55.0617,53.3989 55.0367,53.8409 55.0367,54.2879 C55.0367,62.0109 61.2977,68.2729 69.0207,68.2729 C76.7437,68.2729 83.0047,62.0109 83.0047,54.2879 C83.0047,53.8409 82.9797,53.3989 82.9377,52.9629 C82.2697,60.0639 76.2967,65.6219 69.0207,65.6219"/>
    </g>
    <g filter="url(#a)">
      <path fill="#F3F9FD" d="M204.3536,403.0025 C204.2666,403.0025 204.1786,402.9975 204.0896,402.9865 L136.0286,394.8205 C135.3906,394.7445 134.8286,394.3885 134.4856,393.8455 C134.1436,393.3015 134.0646,392.6415 134.2706,392.0325 L138.6166,378.8945 L136.5276,378.3715 C45.6866,355.6055 -6.6564,272.7745 3.1786,167.3495 C7.6396,119.5335 27.3286,78.3995 60.1146,48.3945 C93.2786,18.0435 136.7976,2.0005 185.9696,2.0005 C195.1006,2.0005 204.4896,2.5715 213.8746,3.6975 C267.1346,10.0865 313.3726,32.3245 344.0696,66.3125 C377.2786,103.0805 391.3296,151.7115 384.7026,206.9485 C379.0906,253.7185 359.7736,296.7245 330.3106,328.0445 C298.4456,361.9185 255.8846,381.5985 207.2306,384.9565 L205.2146,385.0955 L206.4386,400.5185 C206.5266,401.2255 206.3446,401.8175 205.9376,402.2805 C205.5336,402.7395 204.9566,403.0025 204.3536,403.0025"/>
      <path fill="#DDE3EF" d="M185.9689,0.0002 C84.0089,0.0002 10.3089,69.3942 1.1879,167.1642 C-8.7891,274.1062 44.7839,357.4412 136.0409,380.3112 L132.3759,391.3912 C131.5369,393.8712 133.1909,396.4942 135.7899,396.8062 L203.8519,404.9722 C204.0209,404.9922 204.1879,405.0022 204.3529,405.0022 C206.7909,405.0022 208.7489,402.8532 208.4329,400.3602 L207.3689,386.9522 C311.2149,379.7842 375.4789,300.6112 386.6879,207.1872 C400.8479,89.1652 320.3629,14.4592 214.1129,1.7112 C204.5279,0.5612 195.1249,0.0002 185.9689,0.0002 M185.9689,4.0002 C195.0209,4.0002 204.3289,4.5662 213.6359,5.6832 C239.8479,8.8282 264.2509,15.7332 286.1679,26.2072 C308.3309,36.7982 327.3119,50.7422 342.5849,67.6522 C375.3949,103.9792 389.2719,152.0642 382.7159,206.7102 C379.9509,229.7542 373.9539,251.7382 364.8909,272.0512 C355.7019,292.6442 343.5779,311.0232 328.8539,326.6752 C297.3399,360.1752 255.2359,379.6382 207.0929,382.9612 L203.0609,383.2392 L203.3809,387.2682 L204.4449,400.6762 L204.4529,400.7702 L204.4639,400.8632 C204.4679,400.8912 204.4709,400.9182 204.4369,400.9582 C204.4119,400.9862 204.3849,401.0012 204.3359,401.0012 C204.3339,401.0012 204.3309,401.0002 204.3279,401.0002 L136.2669,392.8352 C136.2389,392.8312 136.2089,392.8282 136.1769,392.7782 C136.1459,392.7292 136.1559,392.6992 136.1739,392.6482 L139.8389,381.5672 L141.1909,377.4782 L137.0129,376.4312 C47.1829,353.9182 -4.5681,271.9222 5.1699,167.5352 C7.3749,143.9042 13.4309,121.6992 23.1709,101.5382 C32.7239,81.7652 45.6069,64.3812 61.4639,49.8692 C77.4279,35.2592 96.0359,23.9032 116.7719,16.1152 C138.1769,8.0762 161.4579,4.0002 185.9689,4.0002"/>
      <path fill="#F3F9FD" d="M204.2686,401.4971 L136.2066,393.3311 C135.9636,393.3021 135.8276,393.1601 135.7546,393.0451 C135.6826,392.9311 135.6136,392.7461 135.6916,392.5131 L140.5476,377.8321 L136.8916,376.9161 C46.8096,354.3401 -5.0894,272.1361 4.6716,167.4891 C9.0986,120.0501 28.6206,79.2501 61.1266,49.5001 C94.0096,19.4071 137.1796,3.5001 185.9696,3.5001 C195.0406,3.5001 204.3706,4.0671 213.6966,5.1861 C266.5956,11.5331 312.5016,33.5991 342.9566,67.3171 C375.8666,103.7541 389.7866,151.9771 383.2126,206.7701 C377.6386,253.2241 358.4626,295.9281 329.2176,327.0181 C297.6166,360.6111 255.3986,380.1281 207.1266,383.4601 L203.5996,383.7041 L204.9506,400.7191 L204.9606,400.8011 C204.9846,400.9861 204.9336,401.1501 204.8116,401.2891 C204.7416,401.3681 204.5886,401.5021 204.3536,401.5021 C204.3256,401.5021 204.2966,401.5001 204.2686,401.4971"/>
      <path fill="#DDE3EF" d="M185.9688,0.0002 C84.0088,0.0002 10.3088,69.3942 1.1878,167.1642 C-8.7892,274.1062 44.7838,357.4412 136.0408,380.3112 L132.3758,391.3912 C131.5368,393.8712 133.1908,396.4942 135.7898,396.8062 L203.8518,404.9722 C204.0208,404.9922 204.1878,405.0022 204.3528,405.0022 C206.7908,405.0022 208.7488,402.8532 208.4328,400.3602 L207.3688,386.9522 C311.2148,379.7842 375.4788,300.6112 386.6878,207.1872 C400.8478,89.1652 320.3628,14.4592 214.1128,1.7112 C204.5278,0.5612 195.1248,0.0002 185.9688,0.0002 M185.9688,7.0002 C194.9018,7.0002 204.0898,7.5592 213.2788,8.6612 C239.1648,11.7672 263.2528,18.5812 284.8748,28.9142 C306.6818,39.3352 325.3498,53.0452 340.3588,69.6632 C372.5708,105.3272 386.1878,152.5942 379.7378,206.3532 C377.0088,229.0982 371.0918,250.7902 362.1508,270.8282 C353.0998,291.1142 341.1618,309.2122 326.6688,324.6192 C295.6828,357.5592 254.2618,376.6982 206.8868,379.9682 L199.8308,380.4552 L200.3908,387.5052 L201.1918,397.6032 L140.1178,390.2752 L142.6868,382.5092 L145.0538,375.3532 L137.7428,373.5212 C49.4298,351.3892 -1.4362,270.6442 8.1568,167.8142 C10.3288,144.5402 16.2888,122.6802 25.8728,102.8432 C35.2588,83.4142 47.9148,66.3362 63.4898,52.0822 C79.1698,37.7322 97.4518,26.5762 117.8258,18.9242 C138.8928,11.0122 161.8198,7.0002 185.9688,7.0002"/>
      <path fill="#F3F9FD" d="M204.2686,401.4971 L136.2066,393.3311 C135.9636,393.3021 135.8276,393.1601 135.7546,393.0451 C135.6826,392.9311 135.6136,392.7461 135.6916,392.5131 L140.5476,377.8321 L136.8916,376.9161 C46.8096,354.3401 -5.0894,272.1361 4.6716,167.4891 C9.0986,120.0501 28.6206,79.2501 61.1266,49.5001 C94.0096,19.4071 137.1796,3.5001 185.9696,3.5001 C195.0406,3.5001 204.3706,4.0671 213.6966,5.1861 C266.5956,11.5331 312.5016,33.5991 342.9566,67.3171 C375.8666,103.7541 389.7866,151.9771 383.2126,206.7701 C377.6386,253.2241 358.4626,295.9281 329.2176,327.0181 C297.6166,360.6111 255.3986,380.1281 207.1266,383.4601 L203.5996,383.7041 L204.9506,400.7191 L204.9606,400.8011 C204.9846,400.9861 204.9336,401.1501 204.8116,401.2891 C204.7416,401.3681 204.5886,401.5021 204.3536,401.5021 C204.3256,401.5021 204.2966,401.5001 204.2686,401.4971"/>
      <path fill="#DDE3EF" d="M185.9688,0.0002 C84.0088,0.0002 10.3088,69.3942 1.1878,167.1642 C-8.7892,274.1062 44.7838,357.4412 136.0408,380.3112 L132.3758,391.3912 C131.5368,393.8712 133.1908,396.4942 135.7898,396.8062 L203.8518,404.9722 C204.0208,404.9922 204.1878,405.0022 204.3528,405.0022 C206.7908,405.0022 208.7488,402.8532 208.4328,400.3602 L207.3688,386.9522 C311.2148,379.7842 375.4788,300.6112 386.6878,207.1872 C400.8478,89.1652 320.3628,14.4592 214.1128,1.7112 C204.5278,0.5612 195.1248,0.0002 185.9688,0.0002 M185.9688,7.0002 C194.9018,7.0002 204.0898,7.5592 213.2788,8.6612 C239.1648,11.7672 263.2528,18.5812 284.8748,28.9142 C306.6818,39.3352 325.3498,53.0452 340.3588,69.6632 C372.5708,105.3272 386.1878,152.5942 379.7378,206.3532 C377.0088,229.0982 371.0918,250.7902 362.1508,270.8282 C353.0998,291.1142 341.1618,309.2122 326.6688,324.6192 C295.6828,357.5592 254.2618,376.6982 206.8868,379.9682 L199.8308,380.4552 L200.3908,387.5052 L201.1918,397.6032 L140.1178,390.2752 L142.6868,382.5092 L145.0538,375.3532 L137.7428,373.5212 C49.4298,351.3892 -1.4362,270.6442 8.1568,167.8142 C10.3288,144.5402 16.2888,122.6802 25.8728,102.8432 C35.2588,83.4142 47.9148,66.3362 63.4898,52.0822 C79.1698,37.7322 97.4518,26.5762 117.8258,18.9242 C138.8928,11.0122 161.8198,7.0002 185.9688,7.0002"/>
      <path fill="#E94F7E" d="M204.3536,402.5025 C204.2866,402.5025 204.2176,402.4985 204.1496,402.4905 L136.0876,394.3235 C135.4206,394.2445 135.0626,393.8225 134.9096,393.5785 C134.7546,393.3345 134.5286,392.8295 134.7446,392.1925 L139.2596,378.5405 L136.6486,377.8865 C46.5086,355.2955 -5.6164,273.3705 3.5366,168.9475 C8.3116,167.2295 25.0786,161.8795 48.6426,161.8795 C68.1636,161.8795 87.6226,165.4765 106.4806,172.5675 C124.4456,179.3245 143.4886,191.4875 163.6496,204.3645 C198.2946,226.4925 237.5636,251.5735 278.3316,251.5705 C279.4406,251.5705 280.5586,251.5525 281.6706,251.5155 C333.0816,249.8055 370.3046,223.8565 383.3396,213.3495 C376.7996,257.5035 357.9756,297.9065 329.9466,327.7025 C298.1686,361.4825 255.7226,381.1085 207.1966,384.4575 L204.6756,384.6315 L205.9526,400.6745 C206.0336,401.3075 205.7426,401.7455 205.5626,401.9495 C205.2526,402.3005 204.8116,402.5025 204.3536,402.5025"/>
      <path fill="#DD4775" d="M48.6427,159.3801 C19.8067,159.3791 1.1877,167.1641 1.1877,167.1641 C-8.7893,274.1061 44.7837,357.4411 136.0407,380.3111 L132.3757,391.3921 C131.5367,393.8711 133.1907,396.4941 135.7897,396.8061 L203.8517,404.9721 C204.0207,404.9921 204.1877,405.0021 204.3527,405.0021 C206.7917,405.0021 208.7487,402.8531 208.4327,400.3601 L207.3687,386.9521 C311.2157,379.7841 375.4787,300.6111 386.6877,207.1871 C386.6877,207.1871 345.6127,246.8881 281.5877,249.0171 C280.5027,249.0531 279.4127,249.0711 278.3307,249.0711 C215.3977,249.0711 157.4147,189.0521 107.3607,170.2281 C85.4547,161.9901 65.3357,159.3801 48.6427,159.3801 M48.6427,164.3801 C67.8627,164.3801 87.0257,167.9231 105.6007,174.9081 C123.3207,181.5721 142.2577,193.6661 162.3057,206.4711 C197.2387,228.7821 236.8327,254.0711 278.3307,254.0711 C279.4707,254.0711 280.6217,254.0521 281.7537,254.0141 C315.8287,252.8811 343.4287,241.2381 360.5827,231.6701 C368.5387,227.2331 375.0157,222.8521 379.8587,219.2571 C376.6487,237.6041 371.3247,255.1761 363.9777,271.6431 C354.8347,292.1351 342.7727,310.4191 328.1257,325.9901 C296.7877,359.3031 254.9117,378.6581 207.0237,381.9641 L201.9847,382.3111 L202.3847,387.3471 L203.3787,399.8791 L137.4517,391.9701 L140.7877,381.8811 L142.4787,376.7701 L137.2567,375.4611 C48.8367,353.3021 -2.4773,273.1421 5.8907,170.7781 C11.9477,168.7551 27.5007,164.3801 48.6427,164.3801"/>
      <path fill="#DD4775" d="M386.6876,207.1871 C386.6876,207.1871 335.7106,385.0581 177.9676,366.1321 C8.0606,345.7471 1.1876,167.1641 1.1876,167.1641 C-8.7894,274.1061 44.7836,357.4411 136.0406,380.3111 L132.3756,391.3921 C131.5366,393.8711 133.1916,396.4941 135.7896,396.8061 L203.8516,404.9721 C206.5156,405.2921 208.7706,403.0221 208.4326,400.3601 L207.3686,386.9521 C311.2156,379.7841 375.4786,300.6111 386.6876,207.1871"/>
      <g transform="translate(0 158.453)">
        <path fill="#E94F7E" d="M204.2686,243.0441 L136.2066,234.8781 C135.9636,234.8491 135.8276,234.7071 135.7546,234.5921 C135.6826,234.4781 135.6136,234.2931 135.6916,234.0601 L140.5476,219.3791 L136.8916,218.4631 C47.4356,196.0441 -4.3664,114.8281 4.4776,11.2221 C9.8686,9.3431 26.1256,4.4271 48.6426,4.4271 C68.0416,4.4271 87.3826,8.0021 106.1276,15.0511 C123.9956,21.7701 142.9966,33.9061 163.1116,46.7541 C197.8726,68.9561 237.2716,94.1201 278.3316,94.1181 C279.4526,94.1181 280.5806,94.1001 281.7046,94.0621 C331.5406,92.4041 367.3706,68.8321 381.9476,57.3681 C375.0916,100.2981 356.5536,139.5051 329.2176,168.5641 C297.6166,202.1581 255.3986,221.6751 207.1266,225.0071 L203.5996,225.2511 L204.9506,242.2661 L204.9606,242.3481 C204.9846,242.5331 204.9336,242.6971 204.8116,242.8361 C204.7416,242.9161 204.5876,243.0491 204.3536,243.0491 C204.3256,243.0491 204.2966,243.0471 204.2686,243.0441"/>
        <path fill="#DD4775" d="M48.6427,0.9271 C19.8067,0.9261 1.1877,8.7111 1.1877,8.7111 C-8.7893,115.6531 44.7837,198.9881 136.0407,221.8581 L132.3757,232.9391 C131.5367,235.4181 133.1907,238.0411 135.7897,238.3531 L203.8517,246.5191 C204.0207,246.5391 204.1877,246.5491 204.3527,246.5491 C206.7917,246.5491 208.7487,244.4001 208.4327,241.9071 L207.3687,228.4991 C311.2157,221.3311 375.4787,142.1581 386.6877,48.7341 C386.6877,48.7341 345.6127,88.4351 281.5877,90.5641 C280.5027,90.6001 279.4127,90.6181 278.3307,90.6181 C215.3977,90.6181 157.4147,30.5991 107.3607,11.7751 C85.4547,3.5371 65.3357,0.9271 48.6427,0.9271 M48.6427,7.9271 L48.6427,7.9271 C67.6207,7.9271 86.5477,11.4271 104.8967,18.3271 C122.4207,24.9181 141.2717,36.9571 161.2287,49.7041 C196.3927,72.1621 236.2487,97.6181 278.3307,97.6181 C279.4907,97.6181 280.6647,97.5981 281.8207,97.5601 C316.2947,96.4141 344.2097,84.6391 361.5567,74.9641 C367.5427,71.6251 372.7077,68.3131 376.9817,65.3331 C373.7447,81.7601 368.7787,97.5221 362.1517,112.3751 C353.0997,132.6621 341.1617,150.7591 326.6687,166.1661 C295.6827,199.1061 254.2627,218.2451 206.8867,221.5151 L199.8307,222.0021 L200.3907,229.0531 L201.1917,239.1501 L140.1177,231.8221 L142.6867,224.0561 L145.0537,216.9001 L137.7427,215.0681 C50.7067,193.2561 0.0437,114.5191 7.7787,13.8141 C14.4157,11.7141 29.0997,7.9271 48.6427,7.9271"/>
      </g>
      <path stroke="#FFFFFF" stroke-width="6.184" d="M105.7547,241.8583 C106.7717,233.3813 100.7237,225.6843 92.2467,224.6673 C83.7697,223.6503 76.0727,229.6973 75.0557,238.1753 C74.0387,246.6523 80.0857,254.3493 88.5637,255.3663 C97.0407,256.3833 104.7377,250.3353 105.7547,241.8583 L105.7547,241.8583 Z" opacity=".3"/>
      <path stroke="#FFFFFF" stroke-width="3.979" d="M179.4225,253.0098 C180.0765,247.5558 176.1855,242.6028 170.7315,241.9488 C165.2765,241.2938 160.3245,245.1858 159.6705,250.6398 C159.0155,256.0948 162.9065,261.0468 168.3615,261.7008 C173.8155,262.3558 178.7685,258.4638 179.4225,253.0098 L179.4225,253.0098 Z" opacity=".3"/>
      <path fill="#FFFFFF" fill-opacity=".3" d="M307.273 294.3291C307.663 291.0791 305.345 288.1291 302.095 287.7391 298.845 287.3491 295.895 289.6671 295.505 292.9171 295.115 296.1671 297.433 299.1171 300.683 299.5071 303.933 299.8971 306.883 297.5791 307.273 294.3291M164.389 332.3334C165.213 325.4644 160.313 319.2274 153.443 318.4034 146.574 317.5784 140.337 322.4794 139.513 329.3484 138.689 336.2184 143.589 342.4554 150.459 343.2794 157.328 344.1034 163.565 339.2024 164.389 332.3334"/>
      <path stroke="#E94F7E" stroke-width="6.184" d="M85.7079,102.4021 C84.8919,109.2001 89.7419,115.3721 96.5399,116.1881 C103.3379,117.0031 109.5099,112.1541 110.3259,105.3561 C111.1409,98.5581 106.2919,92.3851 99.4939,91.5701 C92.6959,90.7541 86.5239,95.6041 85.7079,102.4021 L85.7079,102.4021 Z" opacity=".471"/>
      <path stroke="#E94F7E" stroke-width="6.184" d="M234.1934,64.6029 C233.6834,68.8579 236.7184,72.7209 240.9734,73.2309 C245.2284,73.7419 249.0914,70.7059 249.6014,66.4519 C250.1114,62.1969 247.0764,58.3339 242.8214,57.8229 C238.5674,57.3129 234.7034,60.3479 234.1934,64.6029 L234.1934,64.6029 Z" opacity=".484"/>
      <path fill="#E94F7E" d="M285.8145,138.8963 C284.8945,146.5643 290.3655,153.5273 298.0335,154.4473 C305.7015,155.3673 312.6645,149.8963 313.5845,142.2283 C314.5045,134.5593 309.0335,127.5973 301.3655,126.6773 C293.6965,125.7573 286.7345,131.2283 285.8145,138.8963" opacity=".369"/>
      <path fill="#CF4066" d="M298.3492,151.8153 C291.1252,150.9483 285.8562,144.7183 286.0392,137.5883 C285.9462,138.0173 285.8682,138.4523 285.8142,138.8963 C284.8942,146.5643 290.3652,153.5273 298.0332,154.4473 C305.7022,155.3673 312.6642,149.8963 313.5842,142.2283 C313.6372,141.7833 313.6642,141.3423 313.6752,140.9043 C312.1662,147.8753 305.5732,152.6823 298.3492,151.8153" opacity=".276"/>
      <path fill="#221E1F" d="M216.0398,324.1709 C220.2198,321.6529 217.8238,315.7949 232.2678,306.9149 C242.5228,300.6109 254.8698,307.0849 266.5338,302.7759 C277.9248,298.5689 281.9698,284.5239 285.1758,283.4689 C310.2238,275.2239 307.9368,253.4109 311.2508,246.5079 C314.5658,239.6049 326.7438,237.3459 329.5558,221.3959 C331.8468,208.3999 318.0448,193.7049 319.9308,187.2239 C330.3468,151.4329 289.4658,150.9159 289.4658,150.9159 C283.2478,115.1359 249.1158,121.0989 249.1158,121.0989 C216.6718,78.0689 195.5698,103.5939 189.2178,103.8099 C189.2178,103.8099 178.4928,92.5259 160.8318,94.9019 C147.4588,96.7009 136.5628,112.6269 134.0548,115.6829 C131.5458,118.7389 118.5558,112.1799 103.8278,121.1689 C89.0988,130.1589 65.0778,150.0069 81.8868,168.1589 C100.7438,188.5229 122.1608,181.8879 121.2318,187.6199 C119.5368,198.0849 122.1368,210.3439 130.7928,218.6869 C142.5748,230.0419 161.5378,224.4139 161.5378,224.4139 C167.1098,228.3789 159.6418,246.3129 179.9448,261.4209 C184.7508,264.9969 193.8318,265.2269 194.0928,268.3059 C195.6628,286.8209 176.1288,300.1339 177.2888,305.1209 C179.4338,314.3479 207.4668,329.3359 216.0398,324.1709" opacity=".1"/>
      <path fill="#F197AF" stroke="#FFFFFF" stroke-width="5" d="M213.254,313.1567 C217.362,310.7187 214.923,304.9077 229.117,296.3057 C239.193,290.1997 251.486,296.7327 262.98,292.6137 C274.206,288.5897 278.047,274.7697 281.208,273.7647 C305.902,265.9117 303.389,244.3497 306.59,237.5727 C309.791,230.7957 321.817,228.7047 324.417,212.9897 C326.536,200.1857 312.708,185.5197 314.5,179.1417 C324.398,143.9257 283.933,142.9467 283.933,142.9467 C277.369,107.5497 243.659,113.0457 243.659,113.0457 C211.057,70.1907 190.466,95.1487 184.183,95.2897 C184.183,95.2897 173.439,84.0257 155.988,86.1697 C142.774,87.7927 132.174,103.3907 129.726,106.3797 C127.278,109.3677 114.348,102.7427 99.874,111.4487 C85.401,120.1547 61.857,139.4757 78.699,157.5897 C97.595,177.9107 118.714,171.6057 117.861,177.2547 C116.303,187.5667 119.017,199.6997 127.68,208.0367 C139.469,219.3817 158.172,214.0427 158.172,214.0427 C163.732,218.0207 156.546,235.6417 176.813,250.7907 C181.61,254.3767 190.6,254.7077 190.894,257.7497 C192.659,276.0477 173.481,288.9677 174.685,293.9047 C176.914,303.0387 204.829,318.1577 213.254,313.1567"/>
      <path fill="#444444" d="M196.7015,314.1472 C202.8015,300.9102 220.8725,259.0732 247.5775,264.5342 C247.5775,264.5342 255.4555,265.4062 257.0135,274.1722 C258.4075,282.0122 256.7735,283.1392 259.1195,283.9732 C261.3375,284.7622 265.7565,271.5662 258.2265,262.8292 C258.2265,262.8292 282.7985,253.1942 283.8555,228.3082 C283.8555,228.3082 298.4515,229.7622 305.2475,210.4362 C307.1575,205.0052 300.2725,204.9892 298.9175,208.4832 C294.1635,220.7432 282.3965,219.3302 282.3965,219.3302 C281.9565,204.3582 261.9175,190.3852 262.0195,188.9842 C263.0615,174.7112 283.6805,178.2402 285.3825,174.6262 C287.2775,170.6062 263.0095,167.6922 254.5485,182.8652 C254.5485,182.8652 241.2465,173.7332 234.4405,161.0222 C231.8675,156.2172 229.9175,145.4732 229.9645,141.9362 C230.0365,136.5962 229.4565,133.7142 226.0715,139.3682 C222.6875,145.0222 225.3925,153.5532 225.3925,153.5532 C225.3925,153.5532 212.3035,155.2012 199.2955,148.4802 C182.7155,139.9142 184.0945,124.7232 181.4475,128.1352 C178.7995,131.5472 183.2935,145.0672 189.6945,150.1622 C189.6945,150.1622 184.8885,158.6092 176.8685,157.5742 C160.2665,155.4322 148.6125,136.0672 133.4745,136.2782 C115.8455,136.5242 104.0645,155.4762 107.3255,156.9262 C110.0975,158.1582 120.9145,136.5252 139.5385,144.0882 C155.1875,150.4422 164.8665,164.3392 179.5275,164.0102 C194.7475,163.6692 198.8365,156.0342 198.8365,156.0342 C208.2015,162.5302 225.3335,160.2602 225.3335,160.2602 L238.8575,179.3402 C238.8575,179.3402 218.4365,189.1222 217.0365,192.0872 C217.0365,192.0872 202.8115,183.8152 186.7145,194.8622 C184.2665,196.5432 183.8115,197.3332 184.4905,198.4742 C185.7805,200.6422 195.8815,195.2882 200.9755,195.3812 C206.8505,195.4872 212.4805,199.1122 211.7885,201.0062 C204.6805,220.4432 212.2555,228.3582 214.0695,227.9862 C216.9375,227.3982 211.1815,220.6642 218.1005,206.8362 C224.7985,193.4502 244.6845,184.5532 244.6845,184.5532 C256.1065,191.1522 284.1775,211.8822 272.3945,240.5092 C272.3945,240.5092 268.4335,230.6492 261.4285,228.0772 C253.2365,225.0692 243.7915,225.2402 243.4145,228.3762 C242.7965,233.5242 249.4175,229.6732 260.8855,235.2602 C265.7285,237.6202 268.2145,246.5292 265.4755,249.6752 C252.8125,264.2112 236.7465,241.5942 210.2405,279.0682 C200.2915,293.1342 193.4975,306.3792 190.4915,312.7832 C190.4915,312.7832 191.2705,313.2022 191.5505,313.2912 C192.7955,313.6842 196.7015,314.1472 196.7015,314.1472" opacity=".1"/>
      <path fill="#FFFFFF" d="M193.0127,312.1936 C193.0127,312.1936 216.2377,254.2496 245.7837,258.7226 C245.7837,258.7226 253.6607,259.5936 255.2197,268.3596 C256.6137,276.1996 254.9787,277.3266 257.3247,278.1606 C259.5427,278.9496 263.9617,265.7536 256.4317,257.0166 C256.4317,257.0166 281.0047,247.3816 282.0617,222.4956 C282.0617,222.4956 296.6577,223.9496 303.4537,204.6246 C305.3637,199.1926 298.4787,199.1766 297.1237,202.6706 C292.3687,214.9306 280.6027,213.5176 280.6027,213.5176 C280.1627,198.5456 260.1227,184.5726 260.2257,183.1716 C261.2677,168.8986 281.8867,172.4276 283.5887,168.8136 C285.4827,164.7936 261.2147,161.8806 252.7537,177.0526 C252.7537,177.0526 239.4527,167.9206 232.6467,155.2096 C230.0737,150.4056 228.1237,139.6606 228.1707,136.1246 C228.2417,130.7836 227.6627,127.9016 224.2777,133.5556 C220.8927,139.2096 223.5987,147.7406 223.5987,147.7406 C223.5987,147.7406 210.5097,149.3886 197.5017,142.6676 C180.9217,134.1016 182.3007,118.9106 179.6527,122.3226 C177.0057,125.7346 181.4997,139.2546 187.8997,144.3496 C187.8997,144.3496 183.0947,152.7966 175.0747,151.7616 C158.4717,149.6196 146.8187,130.2556 131.6807,130.4666 C114.0517,130.7116 102.2707,149.6636 105.5317,151.1136 C108.3037,152.3466 119.1197,130.7126 137.7437,138.2756 C153.3927,144.6306 163.0717,158.5266 177.7327,158.1986 C192.9537,157.8576 197.0417,150.2216 197.0417,150.2216 C206.4077,156.7176 223.5397,154.4476 223.5397,154.4476 L237.0637,173.5276 C237.0637,173.5276 216.6427,183.3096 215.2427,186.2746 C215.2427,186.2746 201.0177,178.0026 184.9207,189.0506 C182.4717,190.7306 182.0177,191.5216 182.6967,192.6626 C183.9867,194.8306 194.0877,189.4766 199.1817,189.5686 C205.0567,189.6756 210.6867,193.2996 209.9937,195.1936 C202.8857,214.6316 210.4617,222.5456 212.2747,222.1736 C215.1437,221.5856 209.3867,214.8526 216.3067,201.0246 C223.0047,187.6376 242.8907,178.7406 242.8907,178.7406 C254.3127,185.3406 282.3837,206.0706 270.5997,234.6966 C270.5997,234.6966 266.6397,224.8366 259.6347,222.2656 C251.4427,219.2576 241.9967,219.4276 241.6207,222.5636 C241.0027,227.7116 247.6227,223.8606 259.0917,229.4486 C263.9347,231.8076 266.4207,240.7176 263.6807,243.8626 C251.0187,258.3986 234.9527,235.7816 208.4467,273.2566 C194.8387,292.4946 187.7587,309.1506 187.7587,309.1506 C187.2047,311.5226 190.1067,313.6276 193.0127,312.1936"/>
      <path fill="#FFFFFF" d="M368.8289,98.2513 C340.1369,43.7443 282.4549,9.9113 214.1129,1.7113 C97.7899,-12.2447 11.1279,60.6153 1.1879,167.1643 C-1.9221,200.5003 1.1429,231.5423 9.5999,259.1743 C12.3449,268.1433 151.8749,310.4953 204.7739,291.0183 C314.8379,250.4943 379.5779,118.6713 368.8289,98.2513" opacity=".2"/>
      <path fill="#6B7492" d="M385.610374,148.205268 C371.278374,64.4572685 301.387374,12.1822685 214.112374,1.71126845 C97.7893737,-12.2447315 11.1273737,60.6152685 1.18737375,167.163268 C-1.02562625,190.890268 -0.11162625,213.454268 3.64837375,234.454268 C10.0543737,270.228268 -20.2706263,78.2052685 129.577374,34.9022685 C330.088374,-23.0417315 387.213374,157.569268 385.610374,148.205268" opacity=".03"/>
      <path fill="#FFFFFF" d="M1.1875713,167.164 C-8.7894287,274.106 44.7835713,357.441 136.040571,380.311 L132.375571,391.391 C131.536571,393.871 133.190571,396.494 135.789571,396.806 L203.851571,404.972 C206.790571,405.002 208.748571,402.853 208.432571,400.36 L207.368571,386.952 C311.214571,379.784 375.478571,300.611 386.687571,207.187 C400.847571,89.165 320.362571,14.459 214.112571,1.711 C204.527571,0.561 195.124571,0 185.968571,0 C84.0085713,0 10.3085713,69.394 1.1875713,167.164 Z M214.355869,24.2909683 C238.983587,27.1462631 265.900703,33.4102614 286.471688,42.9092186 C307.21868,52.4890727 324.979255,65.0924506 339.258688,80.3691051 C369.904908,113.154435 379.764169,153.472206 374.72353,203.025977 C362.828859,319.960724 271.410905,377.43924 200.065013,380.627396 L201.402481,397.818146 L140.421711,390.892365 L144.596349,374.700775 C60.5761203,354.35519 14.0778643,265.127638 23.204562,170.597708 C25.2709841,149.202302 30.9412769,129.106763 40.0594121,110.870934 C48.9891718,93.0101736 61.0299813,77.3106486 75.8479024,64.2071805 C90.7657196,51.0154612 108.159057,40.7599336 127.542706,33.7255756 C147.585668,26.452204 169.398219,22.7640382 192.37337,22.7640382 C200.872149,22.7640382 205.613533,23.2779178 214.355869,24.2909683 Z" opacity=".049"/>
      <path fill="#FFFFFF" d="M296.876,27.1647 C272.423,13.9617 244.309,5.3347 214.113,1.7117 C97.79,-12.2443 11.128,60.6157 1.187,167.1637 C-1.922,200.5007 128.138,199.2297 181.036,179.7537 C291.101,139.2297 327.767,43.8447 296.876,27.1647" opacity=".12"/>
    </g>
  </g>
</svg>
