<svg xmlns="http://www.w3.org/2000/svg" width="370" height="283" viewBox="0 0 370 283">
  <defs>
    <filter id="a" width="200%" height="200%" x="-50%" y="-50%" filterUnits="objectBoundingBox">
      <feOffset in="SourceAlpha" result="shadowOffsetOuter1"/>
      <feGaussianBlur stdDeviation="9.5" in="shadowOffsetOuter1" result="shadowBlurOuter1"/>
      <feColorMatrix values="0 0 0 0 0 0 0 0 0 0 0 0 0 0 0 0 0 0 0.2 0" in="shadowBlurOuter1" result="shadowMatrixOuter1"/>
      <feMerge>
        <feMergeNode in="shadowMatrixOuter1"/>
        <feMergeNode in="SourceGraphic"/>
      </feMerge>
    </filter>
    <filter id="b" width="200%" height="200%" x="-50%" y="-50%" filterUnits="objectBoundingBox">
      <feOffset in="SourceAlpha" result="shadowOffsetOuter1"/>
      <feGaussianBlur stdDeviation="2" in="shadowOffsetOuter1" result="shadowBlurOuter1"/>
      <feColorMatrix values="0 0 0 0 0 0 0 0 0 0 0 0 0 0 0 0 0 0 0.2 0" in="shadowBlurOuter1" result="shadowMatrixOuter1"/>
      <feMerge>
        <feMergeNode in="shadowMatrixOuter1"/>
        <feMergeNode in="SourceGraphic"/>
      </feMerge>
    </filter>
    <filter id="c" width="200%" height="200%" x="-50%" y="-50%" filterUnits="objectBoundingBox">
      <feOffset in="SourceAlpha" result="shadowOffsetOuter1"/>
      <feGaussianBlur stdDeviation="2" in="shadowOffsetOuter1" result="shadowBlurOuter1"/>
      <feColorMatrix values="0 0 0 0 0 0 0 0 0 0 0 0 0 0 0 0 0 0 0.2 0" in="shadowBlurOuter1" result="shadowMatrixOuter1"/>
      <feMerge>
        <feMergeNode in="shadowMatrixOuter1"/>
        <feMergeNode in="SourceGraphic"/>
      </feMerge>
    </filter>
    <filter id="d" width="200%" height="200%" x="-50%" y="-50%" filterUnits="objectBoundingBox">
      <feOffset in="SourceAlpha" result="shadowOffsetOuter1"/>
      <feGaussianBlur stdDeviation="2" in="shadowOffsetOuter1" result="shadowBlurOuter1"/>
      <feColorMatrix values="0 0 0 0 0 0 0 0 0 0 0 0 0 0 0 0 0 0 0.2 0" in="shadowBlurOuter1" result="shadowMatrixOuter1"/>
      <feMerge>
        <feMergeNode in="shadowMatrixOuter1"/>
        <feMergeNode in="SourceGraphic"/>
      </feMerge>
    </filter>
    <filter id="e" width="200%" height="200%" x="-50%" y="-50%" filterUnits="objectBoundingBox">
      <feOffset in="SourceAlpha" result="shadowOffsetOuter1"/>
      <feGaussianBlur stdDeviation="2" in="shadowOffsetOuter1" result="shadowBlurOuter1"/>
      <feColorMatrix values="0 0 0 0 0 0 0 0 0 0 0 0 0 0 0 0 0 0 0.2 0" in="shadowBlurOuter1" result="shadowMatrixOuter1"/>
      <feMerge>
        <feMergeNode in="shadowMatrixOuter1"/>
        <feMergeNode in="SourceGraphic"/>
      </feMerge>
    </filter>
  </defs>
  <g fill="none" fill-rule="evenodd" transform="translate(6)">
    <g fill="#010202" opacity=".1">
      <path d="M127.030991 233.441991L134.414991 260.128991C134.832991 261.641991 134.093991 263.113991 132.803991 263.470991L124.954991 265.642991C123.665991 265.999991 122.273991 265.116991 121.855991 263.602991L114.471991 236.916991C114.084991 235.515991 114.655991 234.088991 115.857991 233.635991 117.156991 233.094991 118.542991 232.651991 119.944991 232.263991 121.345991 231.875991 122.707991 231.559991 124.155991 231.339991 125.363991 231.126991 126.642991 232.039991 127.030991 233.441991M111.571991 247.375991L116.473991 265.091991C116.892991 266.605991 116.152991 268.077991 114.863991 268.434991L107.014991 270.606991C105.724991 270.962991 104.333991 270.080991 103.915991 268.566991L99.0139905 250.849991C98.6259905 249.448991 99.1969905 248.022991 100.398991 247.569991 101.698991 247.029991 103.084991 246.584991 104.486991 246.197991 105.887991 245.809991 107.249991 245.493991 108.696991 245.273991 109.904991 245.059991 111.184991 245.973991 111.571991 247.375991M95.1209905 257.721991L98.5329905 270.055991C98.9519905 271.569991 98.2129905 273.041991 96.9229905 273.397991L89.0739905 275.569991C87.7849905 275.926991 86.3929905 275.044991 85.9749905 273.530991L82.5619905 261.196991C82.1739905 259.794991 82.7459905 258.368991 83.9479905 257.915991 85.2469905 257.374991 86.6339905 256.931991 88.0349905 256.543991 89.4369905 256.155991 90.7979905 255.839991 92.2459905 255.620991 93.4539905 255.406991 94.7329905 256.319991 95.1209905 257.721991M100.638991 239.053991L92.2369905 233.773991 88.3749905 240.756991C88.5239905 241.077991 88.6889905 241.454991 88.7979905 241.846991 89.7589905 245.323991 87.7319905 248.901991 84.2559905 249.863991 80.7789905 250.825991 77.1999905 248.797991 76.2389905 245.321991 75.2769905 241.845991 77.3049905 238.266991 80.7809905 237.305991 81.1169905 237.212991 81.4699905 237.175991 81.8769905 237.122991L87.6759905 226.886991C88.2189905 226.012991 89.0629905 225.356991 90.0169905 225.092991 91.0409905 224.869991 92.0459905 225.014991 92.9209905 225.556991L101.720991 230.968991 111.302991 218.479991C111.287991 218.423991 111.256991 218.311991 111.240991 218.255991 110.278991 214.778991 112.306991 211.200991 115.782991 210.238991 119.258991 209.276991 122.836991 211.304991 123.798991 214.780991 124.759991 218.256991 122.732991 221.835991 119.256991 222.796991 118.584991 222.982991 117.880991 223.057991 117.257991 222.987991L105.583991 238.168991C104.380991 239.708991 102.244991 240.058991 100.638991 239.053991M54.779885 207.82059C58.346885 220.71559 50.804885 234.02859 37.909885 237.59559 23.445885 241.59759 10.685885 231.90959 7.84088499 219.66059L31.319885 220.10459C33.198885 220.12859 34.460885 218.14959 34.026885 216.58059L26.829885 190.56659C39.050885 188.27159 51.397885 195.59859 54.779885 207.82059L54.779885 207.82059zM1.83988499 213.89659C.808884987 213.88059-.0311150133 213.02659.000884986671 212.05159.0188849867 200.33759 7.31288499 190.05059 18.132885 187.05759 19.085885 186.79359 20.118885 187.47359 20.422885 188.35559L27.682885 214.59259 1.83988499 213.89659zM286.1519 37.492L288.4659 28.402C288.3009 28.025 288.1519 27.704 288.0429 27.312 287.0819 23.836 289.1089 20.257 292.5849 19.295 296.0609 18.333 299.6399 20.361 300.6019 23.837 300.6329 23.949 300.6069 24.077 300.6379 24.189L312.7239 29.476C313.2949 29.137 313.8239 28.87 314.4969 28.684 317.9729 27.722 321.5519 29.75 322.5129 33.225 323.4749 36.702 321.4469 40.28 317.9709 41.242 314.4949 42.204 310.9169 40.176 309.9549 36.7 309.9239 36.588 309.8929 36.476 309.9179 36.349L297.8319 31.061C297.2619 31.4 296.6769 31.683 296.0599 31.853 295.7789 31.931 295.4829 31.953 295.2039 32.03L293.3119 39.373 286.1519 37.492zM275.1439 71.44C274.1979 68.02 276.1289 64.528 279.5179 63.469L282.2439 52.817 289.4039 54.699 286.6189 65.79C287.0999 66.442 287.4859 67.18 287.7029 67.965 288.6649 71.441 286.6369 75.02 283.1609 75.981 279.6849 76.943 276.1059 74.915 275.1439 71.44L275.1439 71.44zM315.7749 57.301L278.4689 47.464C277.7119 48.216 276.7809 48.776 275.7149 49.071 272.2389 50.032 268.6599 48.005 267.6979 44.529 266.7369 41.053 268.7639 37.474 272.2409 36.512 275.3799 35.643 278.6109 37.285 279.8969 40.188L317.2029 50.025C317.9599 49.273 318.8909 48.713 319.9569 48.418 323.4329 47.457 327.0119 49.484 327.9729 52.96 328.9349 56.436 326.9069 60.015 323.4309 60.977 320.2919 61.845 317.0609 60.204 315.7749 57.301L315.7749 57.301zM227.9243 28.7451C227.0553 28.9861 226.1923 28.4961 225.9513 27.6281L224.6703 22.9941 220.0373 24.2771C219.1683 24.5171 218.3053 24.0281 218.0653 23.1591L217.6383 21.6151C217.3983 20.7461 217.8863 19.8831 218.7553 19.6431L223.3883 18.3611 222.1063 13.7281C221.8663 12.8591 222.3553 11.9971 223.2243 11.7561L224.7683 11.3291C225.6363 11.0881 226.4993 11.5781 226.7403 12.4461L228.0223 17.0801 232.6553 15.7981C233.5233 15.5571 234.3863 16.0461 234.6263 16.9151L235.0543 18.4591C235.2943 19.3281 234.8053 20.1911 233.9373 20.4311L229.3043 21.7131 230.5853 26.3461C230.8263 27.2151 230.3363 28.0771 229.4693 28.3181L227.9243 28.7451zM239.8603 16.2991C237.7903 8.8171 230.0883 4.4541 222.6073 6.5231 215.1263 8.5931 210.7623 16.2951 212.8323 23.7761 214.9013 31.2571 222.6043 35.6201 230.0853 33.5511 237.5663 31.4811 241.9293 23.7791 239.8603 16.2991L239.8603 16.2991zM245.6523 14.6961C248.6023 25.3621 242.3543 36.3921 231.6873 39.3431 228.8403 40.1301 225.9153 40.2641 223.1943 39.8211L213.9263 51.5831C212.3273 53.6881 209.3113 54.0551 207.1923 52.4071 205.4703 51.0651 204.9033 48.8321 205.6563 46.8571L210.9943 32.9101C209.2173 30.8031 207.8283 28.2261 207.0413 25.3791 204.0893 14.7121 210.3383 3.6821 221.0043.7311 231.6713-2.2199 242.7003 4.0301 245.6523 14.6961L245.6523 14.6961z"/>
    </g>
    <g filter="url(#a)" transform="translate(12 25)">
      <g filter="url(#b)" transform="translate(49.332)">
        <path fill="#C7C6CE" d="M31.7444623 16.564389C34.7789658 16.757189 37.1342911 19.1901414 37.314411 22.149851 37.3155582 22.1372271 37.3178527 22.125751 37.319 22.1131271 37.5289486 18.824051 35.0325103 15.9882843 31.7444623 15.7794176 28.4564144 15.5694033 25.6215342 18.0666224 25.4127329 21.3556986 25.3966712 21.6081748 25.4024075 21.8572081 25.4173219 22.1039462 25.6444795 18.8332319 28.4690342 16.3555224 31.7444623 16.564389M53.5015651 17.9485324C56.5360685 18.1413324 58.8913938 20.5742848 59.0715137 23.5339943 59.072661 23.5213705 59.0749555 23.5098943 59.0761027 23.4972705 59.2849041 20.2081943 56.789613 17.3724276 53.5015651 17.163561 50.2135171 16.9535467 47.378637 19.4507657 47.1698356 22.7398419 47.153774 22.9923181 47.158363 23.2413514 47.1744247 23.4880895 47.4015822 20.2173752 50.226137 17.7396657 53.5015651 17.9485324M75.2586678 19.332561C78.2931712 19.525361 80.6484966 21.9583133 80.8286164 24.9180229 80.8297637 24.905399 80.8320582 24.8939229 80.8332055 24.881299 81.0420068 21.5922229 78.5455685 18.7564562 75.2586678 18.5475895 71.9706199 18.3375752 69.1357397 20.8347943 68.9269384 24.1238705 68.9108767 24.3763467 68.9154658 24.62538 68.9303801 24.8721181 69.1586849 21.6014038 71.9832397 19.1236943 75.2586678 19.332561M97.0154264 20.7167043C100.04993 20.9095043 102.405255 23.3424567 102.585375 26.3021662 102.586522 26.2895424 102.588817 26.2780662 102.589964 26.2654424 102.798765 22.9763662 100.303474 20.1405995 97.0154264 19.9317329 93.7273784 19.7217186 90.8924983 22.2189376 90.6836969 25.5080138 90.6676353 25.76049 90.6733716 26.0095233 90.688286 26.2562614 90.9154435 22.9855471 93.7399983 20.5078376 97.0154264 20.7167043M118.772529 22.1008476C121.807033 22.2936476 124.162358 24.7266 124.342478 27.6863095 124.343625 27.6736857 124.34592 27.6622095 124.347067 27.6495857 124.555868 24.3605095 122.060577 21.5247429 118.772529 21.3158762 115.484481 21.1058619 112.649601 23.603081 112.4408 26.8921571 112.424738 27.1446333 112.429327 27.3936667 112.444241 27.6404048 112.672546 24.3696905 115.497101 21.891981 118.772529 22.1008476M140.529288 23.4848762C143.563791 23.6776762 145.919116 26.1106286 146.099236 29.0703381 146.100384 29.0577143 146.102678 29.0462381 146.103825 29.0336143 146.313774 25.7445381 143.817336 22.9087714 140.529288 22.6999048 137.24124 22.4898905 134.40636 24.9871095 134.197558 28.2761857 134.181497 28.5286619 134.187233 28.7776952 134.202147 29.0244333 134.429305 25.753719 137.25386 23.2760095 140.529288 23.4848762M162.28639 24.8690195C165.320894 25.0618195 167.676219 27.4947719 167.856339 30.4544814 167.857486 30.4418576 167.859781 30.4303814 167.860928 30.4177576 168.069729 27.1286814 165.574438 24.2929148 162.28639 24.0840481 158.998342 23.8740338 156.163462 26.3712529 155.954661 29.660329 155.938599 29.9128052 155.943188 30.1618386 155.95925 30.4085767 156.186408 27.1378624 159.010962 24.6601529 162.28639 24.8690195M184.043493 26.2531629C187.077997 26.4459629 189.433322 28.8789152 189.613442 31.8386248 189.614589 31.826001 189.616884 31.8145248 189.618031 31.801901 189.826832 28.5128248 187.330394 25.6770581 184.043493 25.4681914 180.755445 25.2581771 177.920565 27.7553962 177.711764 31.0444724 177.695702 31.2969486 177.700291 31.5459819 177.715205 31.79272 177.94351 28.5220057 180.768065 26.0442962 184.043493 26.2531629M205.800252 27.6371914C208.834755 27.8299914 211.19008 30.2629438 211.3702 33.2226533 211.371348 33.2100295 211.373642 33.1985533 211.374789 33.1859295 211.583591 29.8968533 209.0883 27.0610867 205.800252 26.85222 202.512204 26.6422057 199.677324 29.1394248 199.468522 32.428501 199.452461 32.6809771 199.458197 32.9300105 199.473111 33.1767486 199.700269 29.9060343 202.524824 27.4283248 205.800252 27.6371914"/>
        <polygon fill="#C8C6CE" points="216.626 170.858 1.67 158.759 1.333 165.449 216.201 181.735"/>
        <polygon fill="#DFDFE9" points="215.452 179.268 1.976 164.11 2.487 157.432 216.408 168.424"/>
        <path fill="#FEFEFE" d="M205.04306,38.761981 C201.755012,38.5531143 199.259721,35.7173476 199.468522,32.4282714 C199.677324,29.1391952 202.512204,26.6419762 205.800252,26.8519905 C209.0883,27.0608571 211.583591,29.8966238 211.374789,33.1857 C211.165988,36.4747762 208.331108,38.9708476 205.04306,38.761981 L205.04306,38.761981 Z M183.286416,37.3779524 C179.998368,37.1690857 177.50193,34.333319 177.711878,31.0442429 C177.92068,27.7551667 180.75556,25.2579476 184.043608,25.4679619 C187.330509,25.6768286 189.826947,28.5125952 189.618146,31.8016714 C189.409344,35.0907476 186.573317,37.586819 183.286416,37.3779524 L183.286416,37.3779524 Z M161.528625,35.9939238 C158.240577,35.7850571 155.745286,32.9492905 155.954087,29.6602143 C156.164036,26.3711381 158.998916,23.873919 162.285817,24.0839333 C165.573865,24.2928 168.070303,27.1285667 167.861502,30.4176429 C167.651553,33.706719 164.816673,36.2027905 161.528625,35.9939238 L161.528625,35.9939238 Z M139.771981,34.6098952 C136.483933,34.4010286 133.988642,31.5652619 134.197443,28.2761857 C134.406245,24.9871095 137.241125,22.4898905 140.529173,22.6999048 C143.817221,22.9087714 146.313659,25.7445381 146.103711,29.0336143 C145.894909,32.3226905 143.060029,34.8187619 139.771981,34.6098952 L139.771981,34.6098952 Z M118.015337,33.2258667 C114.727289,33.0158524 112.231998,30.1800857 112.4408,26.8921571 C112.649601,23.603081 115.484481,21.1058619 118.772529,21.3158762 C122.060577,21.5247429 124.555868,24.3605095 124.347067,27.6495857 C124.138265,30.9375143 121.303385,33.4347333 118.015337,33.2258667 L118.015337,33.2258667 Z M96.2586935,31.8418381 C92.9706455,31.6318238 90.4742072,28.7960571 90.6841558,25.5081286 C90.8929572,22.2190524 93.7278373,19.7218333 97.0158853,19.9307 C100.302786,20.1407143 102.799224,22.976481 102.590423,26.2655571 C102.380474,29.5534857 99.5455942,32.0507048 96.2586935,31.8418381 L96.2586935,31.8418381 Z M74.5009024,30.4578095 C71.2128545,30.2477952 68.7175634,27.4120286 68.9263647,24.1229524 C69.1351661,20.8350238 71.9700462,18.3378048 75.2580942,18.5466714 C78.5461421,18.7566857 81.0425805,21.5924524 80.8326318,24.880381 C80.6238305,28.1694571 77.7889503,30.6666762 74.5009024,30.4578095 L74.5009024,30.4578095 Z M52.7442586,29.073781 C49.4562106,28.8637667 46.9609195,26.028 47.1697209,22.7389238 C47.3785223,19.4509952 50.2134024,16.9537762 53.5014503,17.1626429 C56.7894983,17.3726571 59.2847894,20.2084238 59.075988,23.4963524 C58.8671866,26.7854286 56.0323065,29.2826476 52.7442586,29.073781 L52.7442586,29.073781 Z M30.9876147,27.6886048 C27.6995668,27.4797381 25.2031284,24.6439714 25.4130771,21.3548952 C25.6218784,18.065819 28.4567586,15.5697476 31.7448065,15.7786143 C35.0317072,15.987481 37.5281455,18.8232476 37.3193442,22.1123238 C37.1105428,25.4014 34.2745154,27.898619 30.9876147,27.6886048 L30.9876147,27.6886048 Z M10.7281455,7.99201905 L0.247922945,161.15211 L217.371519,176.568076 L227.0108,19.1308095 L10.7281455,7.99201905 Z"/>
        <path fill="#010202" fill-opacity=".1" d="M204.263267 26.9591781C204.758884 26.8616305 205.272856 26.818021 205.800596 26.8513019 207.215168 26.9419638 208.48289 27.5203638 209.452325 28.4109162L210.324243 18.2717019 205.034226 17.9985686 204.263267 26.9591781zM182.639935 25.5496724C183.09425 25.4704867 183.563479 25.4372057 184.043034 25.4681914 185.539062 25.5622962 186.867589 26.2061105 187.85538 27.1838819L188.379678 17.1410676 183.093103 16.8690819 182.639935 25.5496724zM160.720265 24.1965148C161.223913 24.0943767 161.748211 24.0496195 162.286276 24.0840481 163.685933 24.1724148 164.939889 24.7404862 165.904735 25.6138243L166.799598 16.0300576 161.508433 15.7569243 160.720265 24.1965148zM139.217166 22.7640567C139.6428 22.6963471 140.081053 22.6710995 140.529632 22.69979 142.087611 22.7984852 143.464324 23.4927948 144.46244 24.540571L144.735488 14.8936852 139.446618 14.6216995 139.217166 22.7640567zM117.414288 21.3886352C117.854836 21.3151876 118.308003 21.2853495 118.772644 21.3151876 120.299647 21.4127352 121.649973 22.0806495 122.6435 23.0928495L123.018654 13.7753305 117.732079 13.5033448 117.414288 21.3886352zM95.4624949 20.0416748C95.9627003 19.9418319 96.4824092 19.8970748 97.0158853 19.9315033 98.4224264 20.0210176 99.6821182 20.5936795 100.648111 21.475051L101.442015 12.6636319 96.1519983 12.3916462 95.4624949 20.0416748zM73.8795462 18.62448C74.3258305 18.5487371 74.7870291 18.5166038 75.2585531 18.5475895 76.7706421 18.6428419 78.1117894 19.29928 79.1030223 20.296561L79.5034161 11.5344895 74.2168408 11.2613562 73.8795462 18.62448zM51.9498955 17.2732733C52.450101 17.1734305 52.9686627 17.1286733 53.5009914 17.1631019 54.9086798 17.2526162 56.1695188 17.8264257 57.1366592 18.7077971L57.8800839 10.42084 52.5900668 10.1477067 51.9498955 17.2732733zM30.395399 15.85057C30.8325051 15.77827 31.2833784 15.7495795 31.7445771 15.7794176 33.2773168 15.8769652 34.6333784 16.54947 35.6280531 17.5685557L35.9424024 9.29077952 30.6546798 9.01879381 30.395399 15.85057z"/>
        <path fill="#16A0DB" d="M32.4210017,0.393518571 L32.4210017,0.393518571 C30.9605394,0.338432857 29.7306764,1.47801857 29.6756079,2.93893762 L28.9838099,21.1860805 C28.9275942,22.6469995 30.0668236,23.8760995 31.527286,23.9323329 L31.527286,23.9323329 C32.9888955,23.9874186 34.2176113,22.8478329 34.2726798,21.3869138 L34.965625,3.13977095 C35.0206935,1.6788519 33.881464,0.448604286 32.4210017,0.393518571"/>
        <path fill="#010202" fill-opacity=".1" d="M30.9055856,21.25861 L31.5973836,3.01146714 C31.6409795,1.89024333 32.3763733,0.964114762 33.375637,0.61638619 C33.0807911,0.487852857 32.7607055,0.406371905 32.4211164,0.393748095 C30.9606541,0.337514762 29.7307911,1.47710048 29.6757226,2.93916714 L28.9839247,21.1851624 C28.9277089,22.647229 30.0669384,23.876329 31.5274007,23.9314148 C31.868137,23.9451862 32.1928116,23.8878052 32.4956884,23.7822243 C31.5262534,23.3587529 30.863137,22.3798338 30.9055856,21.25861"/>
        <path fill="#16A0DB" d="M54.7842021,1.81633667 L54.7842021,1.81633667 C53.3283288,1.6855081 52.04225,2.75967952 51.9114623,4.21715571 L50.278911,22.4034748 C50.1481233,23.8598033 51.2231062,25.1462843 52.6789795,25.2771129 L52.6789795,25.2771129 C54.1348527,25.4079414 55.4209315,24.33377 55.5517192,22.8774414 L57.1842705,4.68997476 C57.3150582,3.23364619 56.2400753,1.94716524 54.7842021,1.81633667"/>
        <path fill="#010202" fill-opacity=".1" d="M52.1949503,22.5753881 L53.8275017,4.38906905 C53.9273134,3.2712881 54.7097449,2.38417857 55.7250702,2.08809286 C55.4382551,1.94464048 55.1227586,1.84709286 54.7843168,1.81610714 C53.3284435,1.68527857 52.0423647,2.76059762 51.9115771,4.21692619 L50.2790257,22.4032452 C50.148238,23.8595738 51.2232209,25.1460548 52.6790942,25.2768833 C53.017536,25.307869 53.3445051,25.2665548 53.6531182,25.1770405 C52.7066284,24.705369 52.0951387,23.693169 52.1949503,22.5753881"/>
        <path fill="#16A0DB" d="M76.0267586,3.16547762 L76.0267586,3.16547762 C74.5662962,3.09891571 73.3284024,4.22817286 73.2618613,5.6890919 L72.4266558,23.9304967 C72.3601147,25.3914157 73.4901661,26.6296967 74.9494812,26.6962586 C76.4099435,26.7628205 77.6478373,25.6335633 77.7155257,24.1726443 L78.5495839,5.93123952 C78.616125,4.47032048 77.4872209,3.23203952 76.0267586,3.16547762"/>
        <path fill="#010202" fill-opacity=".1" d="M74.3485462,24.0181748 L75.1837517,5.77791762 C75.2342312,4.65669381 75.9776558,3.73630333 76.979214,3.3966081 C76.6855154,3.26577952 76.3665771,3.18085571 76.026988,3.16593667 C74.5665257,3.09822714 73.3286318,4.2286319 73.2620908,5.68955095 L72.4268853,23.9298081 C72.3603442,25.3907271 73.4892483,26.6290081 74.9497106,26.6967176 C75.2904469,26.7116367 75.6151216,26.656551 75.9191455,26.5532652 C74.9531524,26.1229081 74.2969195,25.1393986 74.3485462,24.0181748"/>
        <path fill="#16A0DB" d="M98.3023082,4.58485286 L98.3023082,4.58485286 C96.8464349,4.45402429 95.5592089,5.52819571 95.4284212,6.98452429 L93.7901336,25.1708433 C93.6581986,26.6271719 94.7320342,27.9136529 96.1879075,28.0444814 C97.6437808,28.1764576 98.9310068,27.1022862 99.0617945,25.6459576 L100.701229,7.45963857 C100.832017,6.00331 99.7581815,4.71568143 98.3023082,4.58485286"/>
        <path fill="#010202" fill-opacity=".1" d="M95.705714,25.343101 L97.3440017,7.1567819 C97.4449606,6.04014857 98.2285394,5.15303905 99.2438647,4.85695333 C98.9559024,4.71350095 98.6415531,4.61595333 98.301964,4.58496762 C96.8460908,4.45413905 95.560012,5.52831048 95.4292243,6.98463905 L93.7897894,25.1698105 C93.6590017,26.6272867 94.7328373,27.9137676 96.1887106,28.0445962 C96.5271524,28.0755819 96.8552688,28.0354152 97.1627346,27.945901 C96.2162449,27.4730819 95.6047551,26.4608819 95.705714,25.343101"/>
        <path fill="#16A0DB" d="M119.476488,5.93101 L119.476488,5.93101 C118.016026,5.87248143 116.783868,7.00862429 116.725358,8.46954333 L115.989964,26.7155386 C115.931454,28.1764576 117.067241,29.4078529 118.527704,29.467529 L118.527704,29.467529 C119.988166,29.5260576 121.220324,28.3899148 121.278834,26.9278481 L122.014228,8.68300048 C122.073885,7.22208143 120.93695,5.98953857 119.476488,5.93101"/>
        <path fill="#010202" fill-opacity=".1" d="M117.912084,26.792429 L118.647478,8.54758143 C118.692221,7.42635762 119.429909,6.50252429 120.43032,6.15594333 C120.135474,6.02741 119.816536,5.94478143 119.476947,5.93101 C118.016485,5.87248143 116.784327,7.00862429 116.72467,8.46954333 L115.990423,26.714391 C115.930765,28.1764576 117.0677,29.4078529 118.528163,29.467529 C118.867752,29.4813005 119.193574,29.4239195 119.49645,29.3194862 C118.528163,28.8937195 117.867341,27.9136529 117.912084,26.792429"/>
        <path fill="#16A0DB" d="M141.09133,7.31021857 L141.09133,7.31021857 C139.629721,7.26890429 138.412478,8.41996619 138.371176,9.88203286 L137.856057,28.1349138 C137.814755,29.5969805 138.965457,30.8146043 140.427067,30.8559186 C141.888676,30.8972329 143.10592,29.746171 143.147221,28.2841043 L143.662341,10.0312233 C143.703642,8.57030429 142.55294,7.35153286 141.09133,7.31021857"/>
        <path fill="#010202" fill-opacity=".1" d="M139.778979,28.1890814 L140.294099,9.93620048 C140.325075,8.81497667 141.052438,7.88196238 142.047113,7.52390524 C141.752267,7.39881476 141.432182,7.31962905 141.091445,7.3104481 C139.629836,7.26913381 138.412592,8.42019571 138.371291,9.88226238 L137.856171,28.1351433 C137.81487,29.5960624 138.965572,30.8148338 140.427182,30.8561481 C140.767918,30.865329 141.091445,30.8045052 141.394322,30.696629 C140.420298,30.2834862 139.746856,29.3103052 139.778979,28.1890814"/>
        <path fill="#16A0DB" d="M163.611476,8.74072571 L163.611476,8.74072571 C162.155603,8.60415905 160.866082,9.67488762 160.729558,11.1312162 L159.031613,29.3117971 C158.896236,30.7669781 159.965483,32.0580495 161.421356,32.1934686 L161.421356,32.1934686 C162.876082,32.3300352 164.16675,31.2604543 164.302127,29.8041257 L166.001219,11.6235448 C166.136596,10.1672162 165.067349,8.87729238 163.611476,8.74072571"/>
        <path fill="#010202" fill-opacity=".1" d="M160.947193,29.4903667 L162.645139,11.3097857 C162.749539,10.1931524 163.535413,9.3083381 164.551885,9.01569524 C164.26507,8.87224286 163.950721,8.7724 163.611132,8.74026667 C162.156406,8.60484762 160.865738,9.67442857 160.730361,11.1307571 L159.032416,29.3113381 C158.895892,30.7676667 159.965139,32.0575905 161.421012,32.1941571 C161.759454,32.2251429 162.08757,32.1861238 162.396183,32.0977571 C161.450841,31.6214952 160.842793,30.607 160.947193,29.4903667"/>
        <path fill="#16A0DB" d="M184.8865,10.0897519 L184.8865,10.0897519 C183.427185,10.014009 182.18126,11.1352329 182.105541,12.5961519 L181.154462,30.830671 C181.078743,32.29159 182.199616,33.5367567 183.660079,33.6136471 C185.119394,33.68939 186.365318,32.5670186 186.441038,31.1072471 L187.392116,12.8715805 C187.467836,11.411809 186.345815,10.1654948 184.8865,10.0897519"/>
        <path fill="#010202" fill-opacity=".1" d="M183.07555,30.9312024 L184.026628,12.6966833 C184.085139,11.5754595 184.833152,10.6596595 185.837005,10.32685 C185.544454,10.1937262 185.226663,10.1076548 184.887074,10.0892929 C183.426611,10.01355 182.181834,11.1359214 182.104967,12.5956929 L181.155036,30.8313595 C181.07817,32.291131 182.20019,33.5362976 183.659505,33.6131881 C184.000241,33.6304024 184.324916,33.5776119 184.630087,33.4766214 C183.666389,33.0405262 183.017039,32.0512786 183.07555,30.9312024"/>
        <path fill="#16A0DB" d="M207.040096,11.5012086 L207.040096,11.5012086 C205.583075,11.3761181 204.301586,12.45488 204.175387,13.9123562 L202.610524,32.1044133 C202.484325,33.5618895 203.563897,34.84378 205.019771,34.9700181 C206.476791,35.0951086 207.759428,34.015199 207.884479,32.5588705 L209.45049,14.3668133 C209.575541,12.9093371 208.495969,11.626299 207.040096,11.5012086"/>
        <path fill="#010202" fill-opacity=".1" d="M204.526678,32.2696705 L206.092688,14.0776133 C206.189058,12.9598324 206.968048,12.06928 207.982226,11.7697514 C207.694264,11.6274467 207.378767,11.529899 207.040325,11.5012086 C205.583305,11.3761181 204.301815,12.45488 204.175616,13.9123562 L202.609606,32.1044133 C202.484555,33.5618895 203.564127,34.84378 205.02,34.9700181 C205.359589,34.9987086 205.686558,34.9573943 205.994024,34.8655848 C205.046387,34.3973562 204.430308,33.3874514 204.526678,32.2696705"/>
        <polygon fill="#6B7482" fill-opacity=".2" points="106.434 60.167 21.671 56.06 20.905 37.788 109.344 44.699"/>
        <polygon fill="#44B9BC" points="45.413 129.946 22.389 127.632 21.116 147.657 44.167 149.549"/>
        <polygon fill="#44B9BC" points="75.14 113.05 50.703 111.264 48.978 149.248 72.743 150.759"/>
        <polygon fill="#44B9BC" points="107.405 87.841 82.303 85.636 78.18 150.498 103.243 153.307"/>
        <polygon fill="#44B9BC" points="136.286 105.006 111.184 102.801 108.718 152.44 132.484 153.952"/>
        <polygon fill="#44B9BC" points="167.79 80.893 143.91 81.196 138.53 154.944 163.671 156.544"/>
        <polygon fill="#2D9CA3" points="200.381 71.501 175.328 69.3 169.756 156.931 195.537 158.571"/>
        <path fill="#E9507E" d="M27.75475,124.637167 C26.9034829,124.637167 26.0889281,124.149429 25.7114795,123.323143 C25.1975068,122.195033 25.6942705,120.863795 26.8220274,120.348514 L62.0589795,104.265781 L95.2354521,74.5126095 L124.149853,93.3565143 L155.270435,70.3180619 L188.048808,60.337219 C189.238517,59.975719 190.489031,60.6459286 190.850418,61.831419 C191.210658,63.0180571 190.541805,64.2724048 189.356685,64.6327571 L157.318295,74.387519 L124.312764,98.8214762 L95.6691164,80.1531571 L64.5450925,108.066695 L28.6851781,124.434038 C28.3823014,124.571752 28.0668048,124.637167 27.75475,124.637167"/>
        <path fill="#E9507E" d="M183.557399,54.866519 L193.71983,60.7400333 C193.888478,60.843319 193.949283,61.0728429 193.855207,61.2461333 L187.974351,71.4060048 C187.880276,71.5804429 187.64394,71.6435619 187.475293,71.5391286 L184.381132,69.7488429 C184.214779,69.6524429 184.15168,69.4160333 184.24805,69.2496286 L188.151029,62.4993333 L181.401697,58.5939857 C181.236491,58.4987333 181.173392,58.2611762 181.268615,58.095919 L183.059488,54.9996429 C183.116851,54.9227524 183.187981,54.8596333 183.286646,54.8343857 C183.384163,54.8079905 183.46906,54.8286476 183.557399,54.866519"/>
        <path fill="#FEFEFE" d="M58.6368168,105.869005 C58.4727586,108.446557 60.4288373,110.668348 63.0055839,110.832457 C65.5823305,110.996567 67.8034264,109.039876 67.9674846,106.462324 C68.1315428,103.884771 66.175464,101.662981 63.5987175,101.498871 C61.0219709,101.334762 58.800875,103.291452 58.6368168,105.869005"/>
        <path fill="#E9507E" d="M63.296988,102.772499 C61.5152928,102.772499 60.0295908,104.168004 59.9171592,105.950256 C59.8597962,106.855728 60.1569366,107.727918 60.7558065,108.408456 C61.3546764,109.087847 62.1829983,109.495251 63.0870394,109.552632 C64.9570736,109.67428 66.5701216,108.237461 66.6882894,106.380613 C66.7456524,105.47629 66.4473647,104.604099 65.8484949,103.923561 C65.249625,103.243023 64.4213031,102.836766 63.517262,102.779385 C63.4438373,102.774794 63.3704127,102.772499 63.296988,102.772499 M63.3073134,112.124447 L63.3073134,112.124447 C63.1799675,112.124447 63.0526216,112.121004 62.9241284,112.11297 C61.3363202,112.01198 59.8827414,111.298161 58.8307038,110.10349 C57.7798134,108.908818 57.2566627,107.376747 57.3576216,105.787294 C57.5629812,102.531499 60.3795051,100.004442 63.6801729,100.219047 C65.2679812,100.320037 66.7227072,101.033856 67.7735976,102.228528 C68.824488,103.423199 69.348786,104.95527 69.2478271,106.543575 C69.0482038,109.67428 66.4393339,112.124447 63.3073134,112.124447"/>
        <path fill="#FEFEFE" d="M90.7868356,77.0365681 C90.6227774,79.6141205 92.5788562,81.835911 95.1556027,82.0000205 C97.7323493,82.16413 99.9534452,80.2074395 100.117503,77.6298871 C100.281562,75.0523348 98.3254829,72.8305443 95.7487363,72.6664348 C93.1719897,72.5023252 90.9508938,74.4590157 90.7868356,77.0365681"/>
        <path fill="#E9507E" d="M95.447351,73.9399476 C93.6656558,73.9399476 92.1799538,75.3366 92.066375,77.1177048 C92.009012,78.0231762 92.3072997,78.8953667 92.9061695,79.5759048 C93.5038921,80.2552952 94.332214,80.6627 95.2374024,80.720081 C97.1005531,80.8509095 98.7193373,79.4049095 98.8375051,77.5480619 C98.9568202,75.6808857 97.5342175,74.0661857 95.667625,73.9468333 C95.5942003,73.9422429 95.5207757,73.9399476 95.447351,73.9399476 M95.4576764,83.2918952 L95.4565291,83.2918952 C95.3303305,83.2918952 95.2029846,83.2884524 95.0744914,83.280419 C93.4866832,83.1794286 92.0319572,82.4656095 90.9810668,81.2709381 C89.9290291,80.0762667 89.4058784,78.5441952 89.5068373,76.9547429 C89.7144914,73.6978 92.5516661,71.182219 95.830536,71.3864952 C99.1082586,71.5953619 101.605844,74.4322762 101.397043,77.7110238 C101.198567,80.840581 98.5896969,83.2918952 95.4576764,83.2918952"/>
        <path fill="#FEFEFE" d="M119.635039,94.7049667 C119.470981,97.282519 121.42706,99.5043095 124.003807,99.668419 C126.580553,99.8325286 128.801649,97.8758381 128.965707,95.2982857 C129.129765,92.7207333 127.173687,90.4989429 124.59694,90.3348333 C122.020193,90.1707238 119.799098,92.1274143 119.635039,94.7049667"/>
        <path fill="#E9507E" d="M124.295325,91.6086905 C122.51363,91.6086905 121.027928,93.0041952 120.915497,94.7864476 C120.796182,96.6536238 122.218784,98.2694714 124.085377,98.3888238 C125.961147,98.5219476 127.567312,97.0736524 127.686627,95.2168048 C127.74399,94.312481 127.445702,93.4391429 126.846832,92.7597524 C126.247962,92.0792143 125.420788,91.6729571 124.515599,91.6155762 C124.442175,91.6109857 124.36875,91.6086905 124.295325,91.6086905 M124.305651,100.960638 L124.304503,100.960638 C124.178305,100.960638 124.050959,100.957195 123.922466,100.949162 C120.643596,100.740295 118.147158,97.9022333 118.355959,94.6234857 C118.562466,91.3665429 121.389315,88.841781 124.67851,89.0552381 C126.266318,89.1562286 127.721045,89.8689 128.771935,91.0635714 C129.822825,92.2593905 130.347123,93.7914619 130.246164,95.3797667 C130.046541,98.5104714 127.437671,100.960638 124.305651,100.960638"/>
        <path fill="#FEFEFE" d="M151.736873,72.0625576 C151.572815,74.64011 153.528894,76.8619005 156.10564,77.02601 C158.682387,77.1901195 160.903483,75.233429 161.067541,72.6558767 C161.231599,70.0783243 159.275521,67.8565338 156.698774,67.6924243 C154.122027,67.5283148 151.900932,69.4850052 151.736873,72.0625576"/>
        <path fill="#E9507E" d="M156.397389,68.9659371 C154.615693,68.9659371 153.129991,70.3625895 153.016413,72.1436943 C152.95905,73.0491657 153.257337,73.9213562 153.856207,74.6018943 C154.45393,75.2824324 155.282252,75.6886895 156.18744,75.7460705 C158.057474,75.8700133 159.670522,74.430899 159.787543,72.5740514 C159.844906,71.6697276 159.546618,70.7975371 158.948896,70.116999 C158.350026,69.436461 157.521704,69.0302038 156.617663,68.9728229 C156.544238,68.9682324 156.470813,68.9659371 156.397389,68.9659371 M156.407714,78.3178848 L156.406567,78.3178848 C156.280368,78.3178848 156.153022,78.3144419 156.024529,78.3064086 C154.436721,78.2054181 152.981995,77.491599 151.931104,76.2980752 C150.879067,75.1022562 150.355916,73.5701848 150.456875,71.9807324 C150.664529,68.7237895 153.486789,66.2047657 156.780574,66.4124848 C158.368382,66.5134752 159.823108,67.2272943 160.873998,68.4219657 C161.924889,69.6166371 162.448039,71.1487086 162.34708,72.7370133 C162.148604,75.8665705 159.539735,78.3178848 156.407714,78.3178848"/>
      </g>
      <g filter="url(#c)" transform="translate(0 1.148)">
        <polygon fill="#F7AC42" points="56.061 180.69 38.994 .719 .05 6.277 21.391 222.641 59.694 219.006 244.079 200.166 241.728 163.133"/>
        <path fill="#FEFEFE" fill-opacity=".5" d="M75.6779914,190.592096 L74.5731798,178.933434 L77.7648579,178.630462 L78.8696695,190.289124 L75.6779914,190.592096 Z M93.8709007,188.865847 L92.7649418,177.207185 L95.9577671,176.904214 L97.0625788,188.562876 L93.8709007,188.865847 Z M112.063236,187.139484 L110.958425,175.480822 L114.150103,175.17785 L115.254914,186.836512 L112.063236,187.139484 Z M130.256031,185.413235 L129.150072,173.754573 L132.342897,173.451602 L133.447709,185.110264 L130.256031,185.413235 Z M148.44894,183.686987 L147.342981,172.028325 L150.535807,171.725353 L151.640618,183.384015 L148.44894,183.686987 Z M166.641276,181.960738 L165.536464,170.302076 L168.728142,169.999105 L169.832954,181.657767 L166.641276,181.960738 Z M184.834185,180.234375 L183.728226,168.575713 L186.921051,168.272741 L188.02701,179.931403 L184.834185,180.234375 Z M203.026406,178.508126 L201.921594,166.849464 L205.113272,166.546493 L206.219231,178.205155 L203.026406,178.508126 Z M221.219315,176.781878 L220.113356,165.123216 L223.306182,164.820244 L224.410993,176.478906 L221.219315,176.781878 Z M42.8326182,165.198385 L42.5297414,162.005709 L54.1836113,160.899404 L54.486488,164.09208 L42.8326182,165.198385 Z M41.1069092,146.999786 L40.8040325,143.805962 L52.4579024,142.700805 L52.7607791,145.894629 L41.1069092,146.999786 Z M39.3810856,128.801188 L39.0782089,125.608511 L50.7320788,124.502207 L51.0349555,127.69603 L39.3810856,128.801188 Z M37.6553767,110.603278 L37.3525,107.410601 L49.0063699,106.304297 L49.3092466,109.496973 L37.6553767,110.603278 Z M35.9296678,92.404679 L35.6267911,89.2108552 L47.280661,88.1056981 L47.5835377,91.2995219 L35.9296678,92.404679 Z M34.2039589,74.2066543 L33.9010822,71.0128305 L45.5549521,69.9076733 L45.8578288,73.1003495 L34.2039589,74.2066543 Z M32.4781353,56.0080557 L32.1752586,52.8153795 L43.8291284,51.7090748 L44.1320051,54.9028986 L32.4781353,56.0080557 Z M30.7524264,37.8101457 L30.4495497,34.6174695 L42.1034195,33.5111648 L42.4062962,36.703841 L30.7524264,37.8101457 Z M29.0267175,19.6115471 L28.7238408,16.4177233 L40.3777106,15.3125662 L40.6805873,18.50639 L29.0267175,19.6115471 Z"/>
        <polygon fill="#FEFEFE" fill-opacity=".3" points="56.061 180.69 38.994 .719 35.412 1.059 52.818 184.614 56.401 184.274 241.426 166.718 241.728 163.133"/>
        <polygon fill="#010202" fill-opacity=".07" points="35.131 206.015 15.871 2.913 .049 6.277 21.391 222.64 36.571 221.2 244.078 200.167 243.28 186.264"/>
      </g>
      <g filter="url(#d)" transform="translate(250.103 125.09)">
        <polygon fill="#44B9BC" points="48.017 .945 63.13 7.691 52.281 32.015 37.168 25.269"/>
        <polygon fill="#44B9BC" points="3.853 104.617 15.501 109.816 12.817 115.831 1.17 110.632"/>
        <polygon fill="#FEFEFE" points="37.168 25.27 52.281 32.015 15.892 113.597 .779 106.851"/>
        <polygon fill="#010202" fill-opacity=".1" points="58.159 5.791 62.643 7.792 15.642 113.167 11.158 111.165"/>
        <polygon fill="#010202" fill-opacity=".1" points="9.307 110.658 14.159 112.824 12.818 115.831 7.966 113.666"/>
        <polygon fill="#E73D2F" points="38.332 39.633 33.703 37.567 7.613 96.058 12.243 98.125"/>
        <polygon fill="#010202" fill-opacity=".1" points="48.125 1.312 48.776 1.603 1.773 106.977 1.124 106.687"/>
        <polygon fill="#010202" fill-opacity=".1" points="2.511 107.625 3.33 107.991 1.989 110.998 1.17 110.633"/>
        <polygon fill="#010202" fill-opacity=".1" points="14.159 112.824 13.793 113.643 2.145 108.444 2.511 107.625"/>
      </g>
      <g filter="url(#e)" transform="translate(266.017 29.838)">
        <polygon fill="#E9507E" points=".026 8.215 14.688 .54 27.035 24.139 12.372 31.815"/>
        <polygon fill="#E9507E" points="53.935 107.168 65.235 101.252 68.288 107.088 56.988 113.004"/>
        <polygon fill="#FEFEFE" points="12.372 31.814 27.034 24.139 68.444 103.29 53.78 110.966"/>
        <polygon fill="#010202" fill-opacity=".1" points="10.132 3.291 14.47 1.02 67.925 103.196 63.586 105.467"/>
        <polygon fill="#010202" fill-opacity=".1" points="62.055 106.634 66.762 104.17 68.289 107.087 63.582 109.551"/>
        <polygon fill="#E73D2F" points="24.359 39.809 19.868 42.159 49.556 98.908 54.046 96.557"/>
        <polygon fill="#010202" fill-opacity=".1" points=".442 8.363 1.05 8.045 54.504 110.221 53.897 110.539"/>
        <polygon fill="#010202" fill-opacity=".1" points="55.461 110.086 56.256 109.669 57.783 112.588 56.988 113.003"/>
        <polygon fill="#010202" fill-opacity=".1" points="66.762 104.17 67.179 104.965 55.877 110.881 55.462 110.086"/>
      </g>
    </g>
  </g>
</svg>
